<svg width="24" height="22" viewBox="0 0 24 22" fill="none" xmlns="http://www.w3.org/2000/svg">
<path fill-rule="evenodd" clip-rule="evenodd" d="M0.605625 7.08744H5.28337V21.9093H0.605625V7.08744V7.08744ZM2.82525 5.23362H2.7915C1.09781 5.23362 0 4.10056 0 2.66431C0 1.19994 1.13025 0.0908737 2.8575 0.0908737C4.58325 0.0908737 5.6445 1.19712 5.67825 2.66019C5.67825 4.09644 4.58325 5.23362 2.82506 5.23362H2.82525ZM24 21.9091H18.6937V14.2391C18.6937 12.2315 17.8641 10.8609 16.0395 10.8609C14.6439 10.8609 13.8679 11.7858 13.5064 12.677C13.371 12.9969 13.3939 13.4426 13.3939 13.8882V21.9089H8.13937V7.08706H13.3942V9.41319C13.7047 8.39619 15.3836 6.94456 18.0636 6.94456C21.3879 6.94456 23.9998 9.07644 23.9998 13.6674V21.9089L24 21.9091Z" fill="#007EBB"/>
</svg>
